<?xml version="1.0" encoding="UTF-8" standalone="no"?>
<!DOCTYPE svg PUBLIC "-//W3C//DTD SVG 1.1//EN"
 "http://www.w3.org/Graphics/SVG/1.1/DTD/svg11.dtd">
<!-- Generated by graphviz version 5.0.0 (20220707.1540)
 -->
<!-- Title: dependencies Pages: 1 -->
<svg width="762pt" height="174pt"
 viewBox="0.00 0.00 762.00 173.80" xmlns="http://www.w3.org/2000/svg" xmlns:xlink="http://www.w3.org/1999/xlink">
<g id="graph0" class="graph" transform="scale(1 1) rotate(0) translate(4 169.8)">
<title>dependencies</title>
<polygon fill="white" stroke="transparent" points="-4,4 -4,-169.8 758,-169.8 758,4 -4,4"/>
<text text-anchor="middle" x="377" y="-8.2" font-family="sans-serif" font-size="14.00">dependencies</text>
<g id="clust1" class="cluster">
<title>cluster_AppModule</title>
<polygon fill="none" stroke="black" stroke-dasharray="1,5" points="8,-32.8 8,-157.8 746,-157.8 746,-32.8 8,-32.8"/>
</g>
<g id="clust6" class="cluster">
<title>cluster_AppModule_providers</title>
<polygon fill="none" stroke="black" points="588,-40.8 588,-92.8 738,-92.8 738,-40.8 588,-40.8"/>
</g>
<g id="clust3" class="cluster">
<title>cluster_AppModule_imports</title>
<polygon fill="none" stroke="black" points="16,-40.8 16,-92.8 580,-92.8 580,-40.8 16,-40.8"/>
</g>
<!-- AuthModule -->
<g id="node1" class="node">
<title>AuthModule</title>
<polygon fill="#8dd3c7" stroke="black" points="571.55,-84.8 568.55,-88.8 547.55,-88.8 544.55,-84.8 484.45,-84.8 484.45,-48.8 571.55,-48.8 571.55,-84.8"/>
<text text-anchor="middle" x="528" y="-62.6" font-family="Times,serif" font-size="14.00">AuthModule</text>
</g>
<!-- AppModule -->
<g id="node6" class="node">
<title>AppModule</title>
<polygon fill="#8dd3c7" stroke="black" points="409.66,-149.8 406.66,-153.8 385.66,-153.8 382.66,-149.8 326.34,-149.8 326.34,-113.8 409.66,-113.8 409.66,-149.8"/>
<text text-anchor="middle" x="368" y="-127.6" font-family="Times,serif" font-size="14.00">AppModule</text>
</g>
<!-- AuthModule&#45;&gt;AppModule -->
<g id="edge1" class="edge">
<title>AuthModule&#45;&gt;AppModule</title>
<path fill="none" stroke="black" d="M528,-84.82C528,-102.17 528,-125.8 528,-125.8 528,-125.8 420.04,-125.8 420.04,-125.8"/>
<polygon fill="black" stroke="black" points="420.04,-122.3 410.04,-125.8 420.04,-129.3 420.04,-122.3"/>
</g>
<!-- MailModule -->
<g id="node2" class="node">
<title>MailModule</title>
<polygon fill="#8dd3c7" stroke="black" points="465.99,-84.8 462.99,-88.8 441.99,-88.8 438.99,-84.8 380.01,-84.8 380.01,-48.8 465.99,-48.8 465.99,-84.8"/>
<text text-anchor="middle" x="423" y="-62.6" font-family="Times,serif" font-size="14.00">MailModule</text>
</g>
<!-- MailModule&#45;&gt;AppModule -->
<g id="edge2" class="edge">
<title>MailModule&#45;&gt;AppModule</title>
<path fill="none" stroke="black" d="M394.92,-84.91C394.92,-84.91 394.92,-103.79 394.92,-103.79"/>
<polygon fill="black" stroke="black" points="391.42,-103.79 394.92,-113.79 398.42,-103.79 391.42,-103.79"/>
</g>
<!-- PrismaModule -->
<g id="node3" class="node">
<title>PrismaModule</title>
<polygon fill="#8dd3c7" stroke="black" points="362.44,-84.8 359.44,-88.8 338.44,-88.8 335.44,-84.8 263.56,-84.8 263.56,-48.8 362.44,-48.8 362.44,-84.8"/>
<text text-anchor="middle" x="313" y="-62.6" font-family="Times,serif" font-size="14.00">PrismaModule</text>
</g>
<!-- PrismaModule&#45;&gt;AppModule -->
<g id="edge3" class="edge">
<title>PrismaModule&#45;&gt;AppModule</title>
<path fill="none" stroke="black" d="M344.19,-84.91C344.19,-84.91 344.19,-103.79 344.19,-103.79"/>
<polygon fill="black" stroke="black" points="340.69,-103.79 344.19,-113.79 347.69,-103.79 340.69,-103.79"/>
</g>
<!-- SavedPostModule -->
<g id="node4" class="node">
<title>SavedPostModule</title>
<polygon fill="#8dd3c7" stroke="black" points="245.89,-84.8 242.89,-88.8 221.89,-88.8 218.89,-84.8 128.11,-84.8 128.11,-48.8 245.89,-48.8 245.89,-84.8"/>
<text text-anchor="middle" x="187" y="-62.6" font-family="Times,serif" font-size="14.00">SavedPostModule</text>
</g>
<!-- SavedPostModule&#45;&gt;AppModule -->
<g id="edge4" class="edge">
<title>SavedPostModule&#45;&gt;AppModule</title>
<path fill="none" stroke="black" d="M187,-84.82C187,-102.17 187,-125.8 187,-125.8 187,-125.8 316.02,-125.8 316.02,-125.8"/>
<polygon fill="black" stroke="black" points="316.02,-129.3 326.02,-125.8 316.02,-122.3 316.02,-129.3"/>
</g>
<!-- UserModule -->
<g id="node5" class="node">
<title>UserModule</title>
<polygon fill="#8dd3c7" stroke="black" points="109.99,-84.8 106.99,-88.8 85.99,-88.8 82.99,-84.8 24.01,-84.8 24.01,-48.8 109.99,-48.8 109.99,-84.8"/>
<text text-anchor="middle" x="67" y="-62.6" font-family="Times,serif" font-size="14.00">UserModule</text>
</g>
<!-- UserModule&#45;&gt;AppModule -->
<g id="edge5" class="edge">
<title>UserModule&#45;&gt;AppModule</title>
<path fill="none" stroke="black" d="M67,-85.08C67,-106.12 67,-137.8 67,-137.8 67,-137.8 316.15,-137.8 316.15,-137.8"/>
<polygon fill="black" stroke="black" points="316.15,-141.3 326.15,-137.8 316.15,-134.3 316.15,-141.3"/>
</g>
<!-- PrismaService -->
<g id="node7" class="node">
<title>PrismaService</title>
<ellipse fill="#fdb462" stroke="black" cx="663" cy="-66.8" rx="66.64" ry="18"/>
<text text-anchor="middle" x="663" y="-62.6" font-family="Times,serif" font-size="14.00">PrismaService</text>
</g>
<!-- PrismaService&#45;&gt;AppModule -->
<g id="edge6" class="edge">
<title>PrismaService&#45;&gt;AppModule</title>
<path fill="none" stroke="black" d="M663,-85.08C663,-106.12 663,-137.8 663,-137.8 663,-137.8 419.95,-137.8 419.95,-137.8"/>
<polygon fill="black" stroke="black" points="419.95,-134.3 409.95,-137.8 419.95,-141.3 419.95,-134.3"/>
</g>
</g>
</svg>
